<svg width="675" height="140" viewBox="0 0 675 140" fill="none" xmlns="http://www.w3.org/2000/svg">
<g clip-path="url(#clip0_5_37)">
<path d="M59.745 21.5802C55.439 26.1442 54.071 32.6674 55.9675 39.5343C56.8598 42.7654 58.6945 46.2733 60.6161 48.4237C64.4062 52.6777 69.399 54.6192 74.2012 53.7262C75.8275 53.4202 77.2719 52.8504 78.4604 52.0307C79.4083 51.3769 80.1391 50.6504 80.8603 49.6526C85.2022 43.6271 85.568 35.6356 81.8306 28.37C81.169 27.093 79.5569 24.8312 78.4172 23.5874C76.722 21.735 75.6357 20.8715 73.89 19.9901C71.1511 18.6073 68.3226 18.139 65.593 18.6313C63.9352 18.9219 62.7307 19.4005 61.2855 20.3324C60.4731 20.8649 60.2695 21.0238 59.745 21.5802Z" fill="black"/>
<path d="M27.3594 44.2964C24.7936 46.7519 23.5048 50.514 23.877 54.4745C24.2227 58.1846 26.4072 62.2298 29.9101 65.6438C34.3747 69.998 40.1965 72.2483 46.0032 71.8582C47.2813 71.7738 49.2359 71.3989 50.4625 70.9978C51.3314 70.7137 51.5326 70.6119 52.3537 70.092C53.4408 69.3978 54.1371 68.7878 54.8819 67.8848C56.0365 66.4861 56.769 65.0355 57.1968 63.2945C58.0442 59.8461 57.3881 55.9887 55.3283 52.3209C54.4766 50.8136 52.8796 48.8008 51.3936 47.388C46.0317 42.2625 39.1481 40.0771 32.9542 41.5406C30.5401 42.112 28.6945 43.0234 27.3594 44.2964Z" fill="black"/>
<path d="M96.7971 30.2265C92.5932 34.1363 90.4485 39.8512 90.9081 45.9666C91.1236 48.8674 91.7171 51.0903 93.0464 54.0014C93.5291 55.0495 93.7434 55.4207 94.4798 56.4885C95.3809 57.7949 95.912 58.3833 96.9439 59.2287C99.7112 61.5003 103.218 62.4831 106.308 61.8626C107.995 61.5238 109.327 60.9114 110.59 59.8825C113.664 57.3917 115.661 54.096 116.607 49.9584C117.646 45.3953 117.112 40.4434 115.137 36.2169C114.645 35.1563 113.481 33.2253 112.907 32.4995C109.946 28.767 105.218 26.9673 101.062 27.9799C99.4555 28.3745 97.9378 29.171 96.7971 30.2265Z" fill="black"/>
<path d="M24.6985 82.3811C21.9374 84.962 20.6651 88.6572 21.4514 91.8408C21.727 92.9669 22.3234 94.4371 23.0046 95.682C25.4726 100.199 30.397 103.782 35.9753 105.134C37.2014 105.429 39.4072 105.705 40.6932 105.708C43.677 105.736 46.8009 105.073 49.329 103.895C49.9996 103.581 51.4129 102.588 51.9079 102.079C54.1097 99.8379 55.1703 96.7893 54.8232 93.6827C54.6114 91.7712 53.7675 89.7302 52.325 87.6387C51.437 86.3511 50.881 85.6964 49.8033 84.6787C45.6632 80.7495 39.5477 78.6184 33.5574 79.0147C31.9163 79.1177 29.7568 79.5134 28.6981 79.9006C27.374 80.3875 25.7586 81.3904 24.6985 82.3811Z" fill="black"/>
<path d="M71.9727 72.3823C69.6798 74.3252 67.6491 76.5877 65.8963 79.1776C63.2238 83.1433 61.3371 87.9759 60.8455 92.1522C59.7874 101.168 60.5567 109.609 63.0315 116.18C63.1848 116.584 63.3958 117.207 63.5074 117.566C64.0861 119.419 65.3595 121.099 67.019 122.188C69.6902 123.942 73.1376 124.354 76.3363 123.316C78.2459 122.694 80.6114 121.053 82.9123 118.743C84.4147 117.244 85.451 115.991 88.274 112.274C92.1968 107.094 93.3836 105.803 96.6056 103.163C98.047 101.984 98.3186 101.787 99.4203 101.129C102.233 99.44 104.722 98.4927 109.833 97.1548C114.36 95.9694 116.873 95.2837 117.469 95.058C123.446 92.8263 127.417 87.7613 126.798 83.1553C126.52 81.1321 124.92 78.6303 122.684 76.7518C120.507 74.9263 116.135 72.538 112.664 71.2894C102.884 67.7651 96.6068 66.3384 90.4835 66.224C84.6849 66.1265 80.558 67.045 76.281 69.4109C75.0782 70.0736 73.0408 71.4788 71.9727 72.3823Z" fill="black"/>
</g>
<g clip-path="url(#clip1_5_37)">
<path d="M189.705 21.497C185.399 26.061 184.031 32.5842 185.928 39.4511C186.82 42.6822 188.655 46.1901 190.576 48.3405C194.367 52.5945 199.359 54.536 204.162 53.643C205.788 53.337 207.232 52.7672 208.421 51.9475C209.369 51.2937 210.099 50.5672 210.821 49.5694C215.163 43.5439 215.528 35.5524 211.791 28.2868C211.129 27.0099 209.517 24.748 208.378 23.5042C206.682 21.6518 205.596 20.7883 203.85 19.9069C201.111 18.5241 198.283 18.0558 195.553 18.5481C193.896 18.8388 192.691 19.3173 191.246 20.2492C190.433 20.7817 190.23 20.9406 189.705 21.497Z" fill="black"/>
<path d="M157.32 44.2132C154.754 46.6687 153.465 50.4308 153.837 54.3913C154.183 58.1014 156.368 62.1466 159.87 65.5606C164.335 69.9148 170.157 72.1651 175.964 71.775C177.242 71.6906 179.196 71.3157 180.423 70.9146C181.292 70.6305 181.493 70.5287 182.314 70.0088C183.401 69.3146 184.098 68.7046 184.842 67.8016C185.997 66.4029 186.729 64.9523 187.157 63.2114C188.005 59.7629 187.349 55.9055 185.289 52.2377C184.437 50.7304 182.84 48.7176 181.354 47.3048C175.992 42.1793 169.108 39.9939 162.915 41.4574C160.5 42.0288 158.655 42.9402 157.32 44.2132Z" fill="black"/>
<path d="M226.757 30.1434C222.554 34.0531 220.409 39.768 220.868 45.8834C221.084 48.7842 221.677 51.0071 223.007 53.9182C223.489 54.9663 223.704 55.3375 224.44 56.4053C225.341 57.7117 225.872 58.3001 226.904 59.1455C229.671 61.4171 233.178 62.3999 236.269 61.7794C237.956 61.4406 239.287 60.8282 240.551 59.7993C243.625 57.3085 245.621 54.0128 246.568 49.8752C247.607 45.3121 247.073 40.3602 245.097 36.1337C244.606 35.0731 243.441 33.1421 242.867 32.4163C239.907 28.6838 235.179 26.8841 231.023 27.8967C229.416 28.2914 227.898 29.0878 226.757 30.1434Z" fill="black"/>
<path d="M154.659 82.2979C151.898 84.8788 150.625 88.574 151.412 91.7576C151.687 92.8837 152.284 94.3539 152.965 95.5988C155.433 100.116 160.357 103.699 165.936 105.051C167.162 105.345 169.368 105.622 170.654 105.625C173.637 105.653 176.761 104.99 179.289 103.812C179.96 103.498 181.373 102.505 181.868 101.996C184.07 99.7548 185.131 96.7062 184.784 93.5995C184.572 91.688 183.728 89.647 182.285 87.5555C181.397 86.2679 180.841 85.6132 179.764 84.5955C175.624 80.6664 169.508 78.5352 163.518 78.9315C161.877 79.0345 159.717 79.4302 158.658 79.8174C157.334 80.3043 155.719 81.3072 154.659 82.2979Z" fill="black"/>
<path d="M201.933 72.2991C199.64 74.242 197.609 76.5045 195.857 79.0944C193.184 83.0602 191.297 87.8927 190.806 92.069C189.748 101.085 190.517 109.526 192.992 116.096C193.145 116.5 193.356 117.124 193.468 117.483C194.046 119.336 195.32 121.016 196.979 122.105C199.651 123.859 203.098 124.271 206.297 123.233C208.206 122.611 210.572 120.97 212.873 118.66C214.375 117.161 215.411 115.908 218.234 112.191C222.157 107.011 223.344 105.719 226.566 103.08C228.007 101.901 228.279 101.704 229.381 101.046C232.193 99.3568 234.682 98.4095 239.793 97.0716C244.321 95.8862 246.833 95.2005 247.429 94.9748C253.407 92.7432 257.378 87.6781 256.759 83.0721C256.48 81.0489 254.88 78.5471 252.645 76.6686C250.467 74.8431 246.095 72.4548 242.624 71.2062C232.844 67.6819 226.567 66.2552 220.444 66.1408C214.645 66.0433 210.518 66.9618 206.241 69.3277C205.039 69.9904 203.001 71.3956 201.933 72.2991Z" fill="black"/>
</g>
<g clip-path="url(#clip2_5_37)">
<path d="M319.705 21.497C315.399 26.061 314.031 32.5842 315.928 39.4511C316.82 42.6822 318.655 46.1901 320.576 48.3405C324.367 52.5945 329.359 54.536 334.162 53.643C335.788 53.337 337.232 52.7672 338.421 51.9475C339.369 51.2937 340.099 50.5672 340.821 49.5694C345.163 43.5439 345.528 35.5524 341.791 28.2868C341.129 27.0099 339.517 24.748 338.378 23.5042C336.682 21.6518 335.596 20.7883 333.85 19.9069C331.111 18.5241 328.283 18.0558 325.553 18.5481C323.896 18.8388 322.691 19.3173 321.246 20.2492C320.433 20.7817 320.23 20.9406 319.705 21.497Z" fill="black"/>
<path d="M287.32 44.2132C284.754 46.6687 283.465 50.4308 283.837 54.3913C284.183 58.1014 286.368 62.1466 289.87 65.5606C294.335 69.9148 300.157 72.1651 305.964 71.775C307.242 71.6906 309.196 71.3157 310.423 70.9146C311.292 70.6305 311.493 70.5287 312.314 70.0088C313.401 69.3146 314.098 68.7046 314.842 67.8016C315.997 66.4029 316.729 64.9523 317.157 63.2114C318.005 59.7629 317.348 55.9055 315.289 52.2377C314.437 50.7304 312.84 48.7176 311.354 47.3048C305.992 42.1793 299.108 39.9939 292.915 41.4574C290.5 42.0288 288.655 42.9402 287.32 44.2132Z" fill="black"/>
<path d="M356.757 30.1434C352.554 34.0531 350.409 39.768 350.868 45.8834C351.084 48.7842 351.677 51.0071 353.007 53.9182C353.489 54.9663 353.704 55.3375 354.44 56.4053C355.341 57.7117 355.872 58.3001 356.904 59.1455C359.671 61.4171 363.178 62.3999 366.269 61.7794C367.956 61.4406 369.287 60.8282 370.551 59.7993C373.625 57.3085 375.621 54.0128 376.568 49.8752C377.607 45.3121 377.073 40.3602 375.097 36.1337C374.606 35.0731 373.441 33.1421 372.867 32.4163C369.907 28.6838 365.179 26.8841 361.023 27.8967C359.416 28.2914 357.898 29.0878 356.757 30.1434Z" fill="black"/>
<path d="M284.659 82.2979C281.898 84.8788 280.625 88.574 281.412 91.7576C281.687 92.8837 282.284 94.3539 282.965 95.5988C285.433 100.116 290.357 103.699 295.936 105.051C297.162 105.345 299.368 105.622 300.654 105.625C303.637 105.653 306.761 104.99 309.289 103.812C309.96 103.498 311.373 102.505 311.868 101.996C314.07 99.7548 315.131 96.7062 314.784 93.5995C314.572 91.688 313.728 89.647 312.285 87.5555C311.397 86.2679 310.841 85.6132 309.764 84.5955C305.624 80.6664 299.508 78.5352 293.518 78.9315C291.877 79.0345 289.717 79.4302 288.658 79.8174C287.334 80.3043 285.719 81.3072 284.659 82.2979Z" fill="black"/>
<path d="M331.933 72.2991C329.64 74.242 327.609 76.5045 325.857 79.0944C323.184 83.0602 321.297 87.8927 320.806 92.069C319.748 101.085 320.517 109.526 322.992 116.096C323.145 116.5 323.356 117.124 323.468 117.483C324.046 119.336 325.32 121.016 326.979 122.105C329.651 123.859 333.098 124.271 336.297 123.233C338.206 122.611 340.572 120.97 342.873 118.66C344.375 117.161 345.411 115.908 348.234 112.191C352.157 107.011 353.344 105.719 356.566 103.08C358.007 101.901 358.279 101.704 359.381 101.046C362.193 99.3568 364.682 98.4095 369.793 97.0716C374.321 95.8862 376.833 95.2005 377.429 94.9748C383.407 92.7432 387.378 87.6781 386.759 83.0721C386.48 81.0489 384.88 78.5471 382.645 76.6686C380.467 74.8431 376.095 72.4548 372.624 71.2062C362.844 67.6819 356.567 66.2552 350.444 66.1408C344.645 66.0433 340.518 66.9618 336.241 69.3277C335.039 69.9904 333.001 71.3956 331.933 72.2991Z" fill="black"/>
</g>
<g clip-path="url(#clip3_5_37)">
<path d="M452.705 21.497C448.399 26.061 447.031 32.5842 448.928 39.4511C449.82 42.6822 451.655 46.1901 453.576 48.3405C457.367 52.5945 462.359 54.536 467.162 53.643C468.788 53.337 470.232 52.7672 471.421 51.9475C472.369 51.2937 473.099 50.5672 473.821 49.5694C478.163 43.5439 478.528 35.5524 474.791 28.2868C474.129 27.0099 472.517 24.748 471.378 23.5042C469.682 21.6518 468.596 20.7883 466.85 19.9069C464.111 18.5241 461.283 18.0558 458.553 18.5481C456.896 18.8388 455.691 19.3173 454.246 20.2492C453.433 20.7817 453.23 20.9406 452.705 21.497Z" fill="black"/>
<path d="M420.32 44.2132C417.754 46.6687 416.465 50.4308 416.837 54.3913C417.183 58.1014 419.368 62.1466 422.87 65.5606C427.335 69.9148 433.157 72.1651 438.964 71.775C440.242 71.6906 442.196 71.3157 443.423 70.9146C444.292 70.6305 444.493 70.5287 445.314 70.0088C446.401 69.3146 447.098 68.7046 447.842 67.8016C448.997 66.4029 449.729 64.9523 450.157 63.2114C451.005 59.7629 450.349 55.9055 448.289 52.2377C447.437 50.7304 445.84 48.7176 444.354 47.3048C438.992 42.1793 432.108 39.9939 425.915 41.4574C423.5 42.0288 421.655 42.9402 420.32 44.2132Z" fill="black"/>
<path d="M489.757 30.1434C485.554 34.0531 483.409 39.768 483.868 45.8834C484.084 48.7842 484.677 51.0071 486.007 53.9182C486.489 54.9663 486.704 55.3375 487.44 56.4053C488.341 57.7117 488.872 58.3001 489.904 59.1455C492.672 61.4171 496.178 62.3999 499.269 61.7794C500.956 61.4406 502.287 60.8282 503.551 59.7993C506.625 57.3085 508.621 54.0128 509.568 49.8752C510.607 45.3121 510.073 40.3602 508.097 36.1337C507.606 35.0731 506.441 33.1421 505.867 32.4163C502.907 28.6838 498.179 26.8841 494.023 27.8967C492.416 28.2914 490.898 29.0878 489.757 30.1434Z" fill="black"/>
<path d="M417.659 82.2979C414.898 84.8788 413.625 88.574 414.412 91.7576C414.687 92.8837 415.284 94.3539 415.965 95.5988C418.433 100.116 423.357 103.699 428.936 105.051C430.162 105.345 432.368 105.622 433.654 105.625C436.637 105.653 439.761 104.99 442.289 103.812C442.96 103.498 444.373 102.505 444.868 101.996C447.07 99.7548 448.131 96.7062 447.784 93.5995C447.572 91.688 446.728 89.647 445.285 87.5555C444.397 86.2679 443.841 85.6132 442.764 84.5955C438.624 80.6664 432.508 78.5352 426.518 78.9315C424.877 79.0345 422.717 79.4302 421.658 79.8174C420.334 80.3043 418.719 81.3072 417.659 82.2979Z" fill="black"/>
<path d="M464.933 72.2991C462.64 74.242 460.609 76.5045 458.857 79.0944C456.184 83.0602 454.297 87.8927 453.806 92.069C452.748 101.085 453.517 109.526 455.992 116.096C456.145 116.5 456.356 117.124 456.468 117.483C457.046 119.336 458.32 121.016 459.979 122.105C462.651 123.859 466.098 124.271 469.297 123.233C471.206 122.611 473.572 120.97 475.873 118.66C477.375 117.161 478.411 115.908 481.234 112.191C485.157 107.011 486.344 105.719 489.566 103.08C491.007 101.901 491.279 101.704 492.381 101.046C495.193 99.3568 497.682 98.4095 502.793 97.0716C507.321 95.8862 509.833 95.2005 510.429 94.9748C516.407 92.7432 520.378 87.6781 519.759 83.0721C519.48 81.0489 517.88 78.5471 515.645 76.6686C513.467 74.8431 509.095 72.4548 505.624 71.2062C495.844 67.6819 489.567 66.2552 483.444 66.1408C477.645 66.0433 473.518 66.9618 469.241 69.3277C468.039 69.9904 466.001 71.3956 464.933 72.2991Z" fill="black"/>
</g>
<g clip-path="url(#clip4_5_37)">
<path d="M590.705 21.497C586.399 26.061 585.031 32.5842 586.928 39.4511C587.82 42.6822 589.655 46.1901 591.576 48.3405C595.366 52.5945 600.359 54.536 605.162 53.643C606.788 53.337 608.232 52.7672 609.421 51.9475C610.369 51.2937 611.099 50.5672 611.821 49.5694C616.163 43.5439 616.528 35.5524 612.791 28.2868C612.129 27.0099 610.517 24.748 609.377 23.5042C607.682 21.6518 606.596 20.7883 604.85 19.9069C602.111 18.5241 599.283 18.0558 596.553 18.5481C594.896 18.8388 593.691 19.3173 592.246 20.2492C591.433 20.7817 591.23 20.9406 590.705 21.497Z" fill="black"/>
<path d="M558.32 44.2132C555.754 46.6687 554.465 50.4308 554.837 54.3913C555.183 58.1014 557.368 62.1466 560.87 65.5606C565.335 69.9148 571.157 72.1651 576.964 71.775C578.242 71.6906 580.196 71.3157 581.423 70.9146C582.292 70.6305 582.493 70.5287 583.314 70.0088C584.401 69.3146 585.097 68.7046 585.842 67.8016C586.997 66.4029 587.729 64.9523 588.157 63.2114C589.005 59.7629 588.348 55.9055 586.289 52.2377C585.437 50.7304 583.84 48.7176 582.354 47.3048C576.992 42.1793 570.108 39.9939 563.915 41.4574C561.5 42.0288 559.655 42.9402 558.32 44.2132Z" fill="black"/>
<path d="M627.757 30.1434C623.553 34.0531 621.409 39.768 621.868 45.8834C622.084 48.7842 622.677 51.0071 624.007 53.9182C624.489 54.9663 624.704 55.3375 625.44 56.4053C626.341 57.7117 626.872 58.3001 627.904 59.1455C630.671 61.4171 634.178 62.3999 637.269 61.7794C638.956 61.4406 640.287 60.8282 641.551 59.7993C644.625 57.3085 646.621 54.0128 647.567 49.8752C648.607 45.3121 648.073 40.3602 646.097 36.1337C645.606 35.0731 644.441 33.1421 643.867 32.4163C640.907 28.6838 636.179 26.8841 632.023 27.8967C630.416 28.2914 628.898 29.0878 627.757 30.1434Z" fill="black"/>
<path d="M555.659 82.2979C552.898 84.8788 551.625 88.574 552.412 91.7576C552.687 92.8837 553.284 94.3539 553.965 95.5988C556.433 100.116 561.357 103.699 566.936 105.051C568.162 105.345 570.367 105.622 571.653 105.625C574.637 105.653 577.761 104.99 580.289 103.812C580.96 103.498 582.373 102.505 582.868 101.996C585.07 99.7548 586.131 96.7062 585.784 93.5995C585.572 91.688 584.728 89.647 583.285 87.5555C582.397 86.2679 581.841 85.6132 580.764 84.5955C576.623 80.6664 570.508 78.5352 564.518 78.9315C562.877 79.0345 560.717 79.4302 559.658 79.8174C558.334 80.3043 556.719 81.3072 555.659 82.2979Z" fill="black"/>
<path d="M602.933 72.2991C600.64 74.242 598.609 76.5045 596.857 79.0944C594.184 83.0602 592.297 87.8927 591.806 92.069C590.748 101.085 591.517 109.526 593.992 116.096C594.145 116.5 594.356 117.124 594.468 117.483C595.046 119.336 596.32 121.016 597.979 122.105C600.651 123.859 604.098 124.271 607.297 123.233C609.206 122.611 611.572 120.97 613.873 118.66C615.375 117.161 616.411 115.908 619.234 112.191C623.157 107.011 624.344 105.719 627.566 103.08C629.007 101.901 629.279 101.704 630.381 101.046C633.193 99.3568 635.682 98.4095 640.793 97.0716C645.321 95.8862 647.833 95.2005 648.429 94.9748C654.407 92.7432 658.377 87.6781 657.758 83.0721C657.48 81.0489 655.88 78.5471 653.645 76.6686C651.467 74.8431 647.095 72.4548 643.624 71.2062C633.844 67.6819 627.567 66.2552 621.444 66.1408C615.645 66.0433 611.518 66.9618 607.241 69.3277C606.039 69.9904 604.001 71.3956 602.933 72.2991Z" fill="black"/>
</g>
<defs>
<clipPath id="clip0_5_37">
<rect width="110" height="94" fill="white" transform="translate(0.0396423 62.5363) rotate(-34.5939)"/>
</clipPath>
<clipPath id="clip1_5_37">
<rect width="110" height="94" fill="white" transform="translate(130 62.4531) rotate(-34.5939)"/>
</clipPath>
<clipPath id="clip2_5_37">
<rect width="110" height="94" fill="white" transform="translate(260 62.4531) rotate(-34.5939)"/>
</clipPath>
<clipPath id="clip3_5_37">
<rect width="110" height="94" fill="white" transform="translate(393 62.4531) rotate(-34.5939)"/>
</clipPath>
<clipPath id="clip4_5_37">
<rect width="110" height="94" fill="white" transform="translate(531 62.4531) rotate(-34.5939)"/>
</clipPath>
</defs>
</svg>
